#!OML:ASF X:\2005_08_12_Meinard\c3d\meinard.ASF
:FULLY-SPECIFIED
:DEGREES
1531
root 1.74433 16.9684 -4.27566 -19.7498 -75.2113 0.000841891
lowerback 33.9424 -1.78243 0.970533
upperback 5.09487 -2.73483 -2.06674
thorax -11.8293 -1.52237 -1.59369
lowerneck -8.74262 -8.3317 6.44854
upperneck 1.62643 -12.0276 3.92467
head 1.84328 -5.86976 -0.316533
rclavicle 2.28602e-014 1.23246e-014
rhumerus 11.5081 1.93122 -33.1085
rradius 55.2083
rwrist 7.63345
rhand -14.5374 -3.4245
rfingers 7.12502
rthumb 11.6109 -33.0828
lclavicle 2.28602e-014 1.23246e-014
lhumerus 86.7582 95.2574 161.62
lradius 7.79475
lwrist -109.399
lhand -15.0467 -14.0444
lfingers 7.12502
lthumb 11.1197 15.641
rfemur -2.28445 -5.22501 12.96
rtibia 24.8773
rfoot -0.982028 9.83155
rtoes -15.1146
lfemur 17.7961 -0.219709 -12.7447
ltibia 33.0128
lfoot -16.1976 -1.44931
ltoes -22.4108
1532
root 1.88232 16.9435 -4.23708 -19.4095 -75.7044 -0.406121
lowerback 34.3093 -1.70078 0.723149
upperback 5.17007 -2.72679 -2.00349
thorax -11.8734 -1.5147 -1.38805
lowerneck -9.18681 -8.00637 6.51425
upperneck 1.70048 -11.6461 3.90746
head 1.94771 -5.67111 -0.345643
rclavicle 1.78906e-015 1.43125e-014
rhumerus 10.3546 3.11515 -34.5935
rradius 56.1554
rwrist 7.80699
rhand -14.0309 -2.81498
rfingers 7.12502
rthumb 12.0993 -32.4452
lclavicle 1.78906e-015 1.43125e-014
lhumerus 62.9818 95.5591 138.176
lradius 7.90555
lwrist -111.671
lhand -15.2222 -14.4679
lfingers 7.12502
lthumb 10.9505 15.2265
rfemur -2.63427 -4.72271 13.0013
rtibia 24.5288
rfoot -0.64918 9.69079
rtoes -16.1358
lfemur 17.5146 0.228354 -12.7706
ltibia 33.2092
lfoot -17.0104 -1.26533
ltoes -22.3508
1533
root 2.02117 16.9196 -4.19796 -18.9829 -76.1929 -0.894374
lowerback 34.6537 -1.63643 0.529784
upperback 5.25876 -2.72469 -1.94899
thorax -11.8951 -1.51237 -1.21928
lowerneck -9.58234 -7.69594 6.39639
upperneck 1.74556 -11.2659 4.02322
head 2.05362 -5.47244 -0.300595
rclavicle -1.41137e-014 -1.59028e-015
rhumerus 9.22025 4.09099 -36.2587
rradius 57.0086
rwrist 8.22568
rhand -13.4109 -2.21839
rfingers 7.12502
rthumb 12.6971 -31.8124
lclavicle -1.41137e-014 -1.59028e-015
lhumerus 45.1293 96.7545 120.641
lradius 8.01638
lwrist -114.003
lhand -15.577 -14.9811
lfingers 7.12502
lthumb 10.6082 14.7311
rfemur -2.97554 -4.12414 13.0582
rtibia 24.14
rfoot -0.415077 9.44834
rtoes -17.3741
lfemur 17.1966 0.751015 -12.7367
ltibia 33.434
lfoot -17.7865 -1.1426
ltoes -22.243
1534
root 2.16006 16.895 -4.15828 -18.5672 -76.6601 -1.35326
lowerback 34.9611 -1.58493 0.327753
upperback 5.35989 -2.74309 -1.88994
thorax -11.8872 -1.51969 -1.03399
lowerneck -10.0006 -7.39143 6.13815
upperneck 1.80405 -10.8829 4.21015
head 2.18021 -5.26991 -0.210735
rclavicle -1.88845e-015 1.70955e-014
rhumerus 8.1246 5.06228 -37.9553
rradius 57.7905
rwrist 8.63698
rhand -12.7821 -1.68741
rfingers 7.12502
rthumb 13.3033 -31.2428
lclavicle -1.88845e-015 1.70955e-014
lhumerus 33.3573 98.4415 109.187
lradius 8.15074
lwrist -116.385
lhand -15.9277 -15.4978
lfingers 7.12502
lthumb 10.2699 14.2315
rfemur -3.30935 -3.57736 13.0716
rtibia 23.7235
rfoot -0.305754 9.22686
rtoes -19.1641
lfemur 16.842 1.30339 -12.697
ltibia 33.6783
lfoot -18.5357 -1.11666
ltoes -21.9867
1535
root 2.30033 16.8701 -4.11885 -18.0178 -77.1333 -1.94601
lowerback 35.2803 -1.52899 0.122781
upperback 5.46715 -2.75594 -1.80681
thorax -11.8738 -1.52496 -0.823618
lowerneck -10.4282 -7.09544 5.78953
upperneck 1.83604 -10.5012 4.4603
head 2.3076 -5.06763 -0.0835121
rclavicle 2.93207e-014 8.74653e-015
rhumerus 7.06284 6.16338 -39.5591
rradius 58.514
rwrist 8.82113
rhand -12.1941 -1.29453
rfingers 7.12502
rthumb 13.87 -30.812
lclavicle 2.93207e-014 8.74653e-015
lhumerus 25.9846 100.419 102.104
lradius 8.24298
lwrist -118.763
lhand -16.3265 -15.9655
lfingers 7.12502
lthumb 9.8852 13.7824
rfemur -3.62611 -3.05854 13.0995
rtibia 23.281
rfoot -0.352161 9.02777
rtoes -21.3192
lfemur 16.4595 1.94674 -12.5812
ltibia 33.9485
lfoot -19.2103 -1.14394
ltoes -21.9375
1536
root 2.44014 16.8468 -4.07988 -17.5213 -77.5834 -2.47145
lowerback 35.6705 -1.47051 -0.17777
upperback 5.48789 -2.79733 -1.67688
thorax -11.8603 -1.53972 -0.511124
lowerneck -10.8738 -6.8004 5.41201
upperneck 1.89713 -10.1132 4.65755
head 2.44541 -4.86197 0.0342486
rclavicle -3.35946e-014 -2.0276e-014
rhumerus 6.12528 7.25567 -41.2279
rradius 59.1295
rwrist 9.0939
rhand -11.6119 -0.968334
rfingers 7.12502
rthumb 14.4309 -30.4466
lclavicle -3.35946e-014 -2.0276e-014
lhumerus 20.8769 102.608 97.2972
lradius 8.36665
lwrist -121.142
lhand -16.6661 -16.4616
lfingers 7.12502
lthumb 9.55754 13.3017
rfemur -3.92871 -2.62723 13.0686
rtibia 22.8406
rfoot -0.446579 8.89863
rtoes -23.253
lfemur 16.0479 2.60558 -12.4771
ltibia 34.2288
lfoot -19.8516 -1.22991
ltoes -21.8194
1537
root 2.57981 16.8232 -4.04221 -16.8386 -78.014 -3.15768
lowerback 35.9678 -1.41801 -0.485941
upperback 5.57399 -2.84692 -1.53207
thorax -11.8534 -1.55793 -0.165778
lowerneck -11.362 -6.49113 5.12061
upperneck 1.99981 -9.71661 4.79486
head 2.59628 -4.65081 0.120799
rclavicle -1.68967e-015 -5.96354e-015
rhumerus 5.19655 8.33774 -42.9204
rradius 59.7015
rwrist 9.40163
rhand -10.9526 -0.753435
rfingers 7.12502
rthumb 15.0661 -30.1852
lclavicle -1.68967e-015 -5.96354e-015
lhumerus 17.2152 104.879 93.9231
lradius 8.49827
lwrist -123.515
lhand -16.9775 -16.8349
lfingers 7.12502
lthumb 9.25707 12.9419
rfemur -4.23631 -2.30529 13.0251
rtibia 22.4221
rfoot -0.51789 8.83689
rtoes -24.6677
lfemur 15.5901 3.26889 -12.3346
ltibia 34.5089
lfoot -20.4373 -1.31846
ltoes -21.7091
1538
root 2.71853 16.7992 -4.00574 -16.2046 -78.4138 -3.7862
lowerback 36.23 -1.3676 -0.831423
upperback 5.67686 -2.91585 -1.39074
thorax -11.8114 -1.58519 0.201939
lowerneck -11.8519 -6.14036 5.02263
upperneck 2.05614 -9.27974 4.81291
head 2.71454 -4.42462 0.144972
rclavicle -2.00773e-014 1.35174e-014
rhumerus 4.32896 9.42036 -44.6165
rradius 60.2216
rwrist 9.63174
rhand -10.2569 -0.648716
rfingers 7.12502
rthumb 15.7362 -30.029
lclavicle -2.00773e-014 1.35174e-014
lhumerus 14.4751 107.213 91.4364
lradius 8.6254
lwrist -125.841
lhand -17.2042 -17.2175
lfingers 7.12502
lthumb 9.03831 12.5688
rfemur -4.51301 -1.98715 12.9377
rtibia 22.0389
rfoot -0.551151 8.74915
rtoes -25.6404
lfemur 15.1178 3.94584 -12.2096
ltibia 34.7769
lfoot -20.927 -1.44104
ltoes -21.5257
1539
root 2.85633 16.7774 -3.97131 -15.5367 -78.7838 -4.4273
lowerback 36.4663 -1.32786 -1.19108
upperback 5.77143 -3.00483 -1.25508
thorax -11.7671 -1.62143 0.578421
lowerneck -12.3485 -5.74528 5.09759
upperneck 2.15211 -8.80294 4.70412
head 2.83301 -4.18013 0.10407
rclavicle 7.45443e-015 1.82882e-014
rhumerus 3.47989 10.5134 -46.3234
rradius 60.6496
rwrist 9.87263
rhand -9.52473 -0.61383
rfingers 7.12502
rthumb 16.4413 -29.9371
lclavicle 7.45443e-015 1.82882e-014
lhumerus 12.3817 109.583 89.5746
lradius 8.76222
lwrist -128.18
lhand -17.3973 -17.4606
lfingers 7.12502
lthumb 8.85196 12.3338
rfemur -4.79106 -1.76806 12.8421
rtibia 21.7143
rfoot -0.659589 8.70578
rtoes -26.7584
lfemur 14.6192 4.59924 -12.0947
ltibia 35.0241
lfoot -21.3862 -1.57558
ltoes -21.4772
1540
root 2.9939 16.7568 -3.9387 -14.7965 -79.1346 -5.1412
lowerback 36.7113 -1.27971 -1.54039
upperback 5.86322 -3.08102 -1.11871
thorax -11.7279 -1.65276 0.944928
lowerneck -12.8239 -5.34266 5.16733
upperneck 2.21856 -8.31317 4.59768
head 2.93945 -3.93127 0.0689148
rclavicle 8.84592e-015 1.19271e-014
rhumerus 2.53054 11.5388 -48.0279
rradius 61.1106
rwrist 10.1563
rhand -8.64676 -0.612766
rfingers 7.12502
rthumb 17.2864 -29.864
lclavicle 8.84592e-015 1.19271e-014
lhumerus 10.5499 111.9 87.9602
lradius 8.9189
lwrist -130.522
lhand -17.437 -17.6706
lfingers 7.12502
lthumb 8.81361 12.1254
rfemur -5.03493 -1.37405 12.7812
rtibia 21.4511
rfoot -0.983854 8.51766
rtoes -27.9938
lfemur 14.1082 5.19606 -11.9953
ltibia 35.2589
lfoot -21.7762 -1.68462
ltoes -21.2059
1541
root 3.12982 16.7384 -3.90747 -14.1351 -79.4503 -5.74634
lowerback 36.9379 -1.23583 -1.89443
upperback 5.9301 -3.16561 -0.997677
thorax -11.7091 -1.68667 1.30073
lowerneck -13.2704 -4.95368 5.1997
upperneck 2.3128 -7.83574 4.4997
head 3.05368 -3.68797 0.0443719
rclavicle -2.04748e-014 -7.15625e-015
rhumerus 1.51856 12.5871 -49.7302
rradius 61.5276
rwrist 10.4227
rhand -7.8225 -0.727465
rfingers 7.12502
rthumb 18.0796 -29.9072
lclavicle -2.04748e-014 -7.15625e-015
lhumerus 9.16335 114.202 86.769
lradius 9.07513
lwrist -132.838
lhand -17.4789 -17.8309
lfingers 7.12502
lthumb 8.77324 11.9668
rfemur -5.28512 -0.921218 12.7128
rtibia 21.2706
rfoot -1.44706 8.27396
rtoes -29.1297
lfemur 13.5727 5.76103 -11.9431
ltibia 35.4763
lfoot -22.1379 -1.76495
ltoes -21.0169
1542
root 3.2644 16.7242 -3.87963 -13.2733 -79.7524 -6.54713
lowerback 37.1258 -1.18567 -2.19876
upperback 6.02343 -3.22385 -0.875131
thorax -11.6474 -1.71252 1.61916
lowerneck -13.7456 -4.59117 5.16244
upperneck 2.3902 -7.38646 4.44179
head 3.17325 -3.45851 0.0442126
rclavicle -1.78906e-014 1.51076e-014
rhumerus 0.486053 13.5316 -51.4276
rradius 61.8821
rwrist 10.7206
rhand -6.9623 -0.833457
rfingers 7.12502
rthumb 18.9071 -29.9345
lclavicle -1.78906e-014 1.51076e-014
lhumerus 7.99859 116.454 85.8159
lradius 9.21985
lwrist -135.154
lhand -17.6064 -17.9348
lfingers 7.12502
lthumb 8.6502 11.8679
rfemur -5.52742 -0.753248 12.7007
rtibia 21.1856
rfoot -1.88677 8.26073
rtoes -30.1331
lfemur 13.0171 6.28129 -11.873
ltibia 35.6819
lfoot -22.4177 -1.83534
ltoes -20.8253
1543
root 3.39814 16.716 -3.85386 -12.4266 -79.9997 -7.31445
lowerback 37.3953 -1.15602 -2.47178
upperback 6.00486 -3.29666 -0.77744
thorax -11.7441 -1.73732 1.906
lowerneck -14.0664 -4.26433 5.10752
upperneck 2.51684 -6.96942 4.37103
head 3.28122 -3.24554 0.0467227
rclavicle -4.29375e-014 4.77083e-015
rhumerus -0.718283 14.4556 -53.2348
rradius 62.0485
rwrist 11.1061
rhand -6.24877 -0.881314
rfingers 7.12502
rthumb 19.5932 -29.914
lclavicle -4.29375e-014 4.77083e-015
lhumerus 7.49583 118.655 85.4329
lradius 9.31077
lwrist -137.51
lhand -17.7492 -17.9814
lfingers 7.12502
lthumb 8.5124 11.8271
rfemur -5.79417 -0.816725 12.709
rtibia 21.2732
rfoot -2.32831 8.31832
rtoes -30.8922
lfemur 12.4393 6.72863 -11.846
ltibia 35.86
lfoot -22.6706 -1.87784
ltoes -20.6394
1544
root 3.53003 16.7126 -3.83135 -11.6678 -80.2401 -7.99254
lowerback 37.654 -1.09675 -2.70814
upperback 5.9803 -3.32123 -0.703821
thorax -11.8477 -1.7404 2.12775
lowerneck -14.3577 -3.99522 4.93298
upperneck 2.6185 -6.61218 4.40583
head 3.38349 -3.06081 0.10312
rclavicle 4.86029e-014 -1.11319e-014
rhumerus -1.91436 15.1434 -55.1263
rradius 61.8855
rwrist 11.5783
rhand -5.63128 -0.830838
rfingers 7.12502
rthumb 20.1868 -29.802
lclavicle 4.86029e-014 -1.11319e-014
lhumerus 7.14276 120.72 85.1969
lradius 9.39972
lwrist -139.925
lhand -18.022 -18.0147
lfingers 7.12502
lthumb 8.24914 11.8043
rfemur -6.06909 -1.22612 12.7437
rtibia 21.5536
rfoot -2.74321 8.54828
rtoes -31.1191
lfemur 11.8668 7.09807 -11.8725
ltibia 36.0116
lfoot -22.861 -1.87983
ltoes -20.4333
1545
root 3.66079 16.7135 -3.81255 -10.9132 -80.455 -8.65182
lowerback 37.8858 -1.02701 -2.87575
upperback 5.95951 -3.30935 -0.663322
thorax -11.9439 -1.72891 2.26172
lowerneck -14.6792 -3.78299 4.76742
upperneck 2.73285 -6.33234 4.42666
head 3.49452 -2.91413 0.148597
rclavicle 2.36554e-014 8.74653e-015
rhumerus -3.18478 15.7009 -57.0559
rradius 61.5742
rwrist 11.9802
rhand -5.20148 -0.760583
rfingers 7.12502
rthumb 20.5998 -29.6875
lclavicle 2.36554e-014 8.74653e-015
lhumerus 6.75105 122.621 84.9244
lradius 9.4946
lwrist -142.333
lhand -18.3499 -18.0034
lfingers 7.12502
lthumb 7.9326 11.8277
rfemur -6.33966 -1.94837 12.8254
rtibia 22.0161
rfoot -3.30157 8.78723
rtoes -31.3245
lfemur 11.2834 7.46105 -11.8958
ltibia 36.132
lfoot -22.9603 -1.87861
ltoes -20.1525
